# xmcd
#
# Track frame offsets:
#	150
#	16070
#	45552
#	61438
#	72665
#	83905
#	97575
#	111277
#	167619
#	182732
#	196801
#	207287
#	221249
#	233670
#
# Disc length: 3274 seconds
#
# Revision: 0
# Processed by: cddbd v1.5.1PL0 Copyright (c) Steve Scherf et al.
# Submitted via: EasyCDDAExtractor 8.0.1.1
#
DISCID=bb0cc80e
DTITLE=Manoel Do Côco - Do Tamanho Do Brasil
DYEAR=1900
DGENRE=
TTITLE0=Brasil 500 Anos
TTITLE1=Minha Terra
TTITLE2=Veja O Pará
TTITLE3=Vida De Vaqueiro
TTITLE4=Amor Gostoso
TTITLE5=Clemência
TTITLE6=Deus Ajude-me
TTITLE7=Do Tamanho Do Brasil
TTITLE8=Salve A Natureza
TTITLE9=Desabafo
TTITLE10=Igualdade
TTITLE11=Lamento
TTITLE12=Paixão Família
TTITLE13=Lembrança
EXTD=
EXTT0=
EXTT1=
EXTT2=
EXTT3=
EXTT4=
EXTT5=
EXTT6=
EXTT7=
EXTT8=
EXTT9=
EXTT10=
EXTT11=
EXTT12=
EXTT13=
PLAYORDER=
